<?xml version="1.0" encoding="utf-8"?><svg viewBox="0 0 502.66 502.66" xmlns="http://www.w3.org/2000/svg" xmlns:xlink="http://www.w3.org/1999/xlink"><style>:root>svg{display:none}:root>svg:target{display:block}</style><svg viewBox="0 0 502.664 502.664" id="icon" xmlns="http://www.w3.org/2000/svg"><path d="M153.821 358.226L0 274.337v-46.463l153.821-83.414v54.574L46.636 250.523l107.185 53.431v54.272zm26.273 29.358L282.103 115.08h32.227L212.084 387.584h-31.99zm168.749-29.358v-54.272l107.164-52.999-107.164-52.59v-53.927l153.821 83.522v46.183l-153.821 84.083z"/></svg><svg viewBox="0 0 20 21" id="mail" xmlns="http://www.w3.org/2000/svg"><g clip-path="url(#ba)"><path d="M18.333 6.335v7.887a2.5 2.5 0 01-2.353 2.496l-.147.004H4.167A2.5 2.5 0 011.67 14.37l-.004-.147V6.335l7.87 5.247.097.055a.833.833 0 00.732 0l.096-.055 7.871-5.247z"/><path d="M15.833 3.389c.9 0 1.69.475 2.13 1.19L10 9.885 2.038 4.578a2.5 2.5 0 011.961-1.183l.168-.006h11.666z"/></g><defs><clipPath id="ba"><path transform="translate(0 .056)" d="M0 0h20v20H0z"/></clipPath></defs></svg><svg viewBox="0 0 20 21" id="phone" xmlns="http://www.w3.org/2000/svg"><path d="M17.073 14.34l-3.388-3.08a.835.835 0 00-1.159.035l-1.994 2.05c-.48-.09-1.445-.392-2.438-1.383-.994-.994-1.295-1.961-1.384-2.438L8.76 7.53a.833.833 0 00.035-1.159L5.716 2.983a.833.833 0 00-1.16-.072L2.75 4.46a.833.833 0 00-.242.541c-.013.209-.25 5.144 3.576 8.972 3.338 3.338 7.52 3.582 8.671 3.582.169 0 .272-.005.3-.007a.827.827 0 00.54-.242l1.55-1.81a.831.831 0 00-.071-1.158z"/></svg></svg>