<svg width="35" height="35" viewBox="0 0 35 35" fill="none" xmlns="http://www.w3.org/2000/svg">
<path d="M17.6861 11.6298C16.4778 11.6403 15.2998 12.0089 14.301 12.689C13.3022 13.369 12.5275 14.33 12.0749 15.4503C11.6223 16.5706 11.512 17.8 11.7581 18.983C12.0041 20.166 12.5955 21.2495 13.4573 22.0964C14.3191 22.9434 15.4128 23.5157 16.5999 23.7411C17.787 23.9665 19.0143 23.8348 20.1265 23.3626C21.2388 22.8905 22.1861 22.0991 22.8486 21.0886C23.5111 20.0781 23.8591 18.8939 23.8486 17.6856C23.8323 16.066 23.1744 14.519 22.0192 13.3838C20.864 12.2485 19.3057 11.6178 17.6861 11.6298ZM17.7788 22.2544C16.8857 22.2622 16.0104 22.005 15.2635 21.5153C14.5166 21.0256 13.9317 20.3254 13.5828 19.5033C13.2338 18.6812 13.1364 17.7741 13.303 16.8966C13.4696 16.0192 13.8927 15.2109 14.5186 14.5739C15.1446 13.9369 15.9454 13.4998 16.8198 13.3179C17.6942 13.136 18.6029 13.2175 19.431 13.5521C20.2591 13.8867 20.9693 14.4593 21.472 15.1975C21.9746 15.9357 22.2471 16.8064 22.2549 17.6995C22.2653 18.8971 21.7996 20.0498 20.9602 20.904C20.1208 21.7582 18.9764 22.2439 17.7788 22.2544ZM29.1641 18.0164C29.1699 17.7653 29.1677 17.513 29.1576 17.2621L31.1713 14.6997C31.2483 14.6016 31.3011 14.4869 31.3257 14.3646C31.3502 14.2424 31.3457 14.1161 31.3126 13.9959C30.9836 12.7982 30.4965 11.6496 29.8643 10.5805C29.8015 10.472 29.7139 10.3798 29.6088 10.3115C29.5036 10.2432 29.3839 10.2006 29.2592 10.1873L26.0089 9.85575C25.8364 9.67397 25.6578 9.49844 25.473 9.32916L25.0835 6.08384C25.068 5.95941 25.0233 5.84039 24.9532 5.73646C24.8831 5.63253 24.7894 5.54661 24.6798 5.4857C23.6011 4.874 22.4461 4.40799 21.245 4.09984C21.1239 4.06934 20.9974 4.0677 20.8756 4.09506C20.7538 4.12243 20.6401 4.17802 20.5437 4.25737L18.0117 6.32088C17.7602 6.3151 17.5086 6.3173 17.2573 6.32746L14.7002 4.30704C14.6021 4.23007 14.4873 4.17719 14.3651 4.15265C14.2429 4.12811 14.1166 4.1326 13.9964 4.16576C12.7987 4.49477 11.6501 4.98182 10.581 5.61405C10.4725 5.67687 10.3803 5.7644 10.312 5.86955C10.2437 5.97469 10.2011 6.09447 10.1878 6.21915L9.86155 9.46938C9.67978 9.64275 9.50425 9.82137 9.33496 10.0052L6.08838 10.4028C5.96396 10.4183 5.84494 10.4629 5.741 10.5331C5.63707 10.6032 5.55115 10.6969 5.49024 10.8065C4.87854 11.8852 4.41253 13.0401 4.10438 14.2413C4.07463 14.3609 4.073 14.4857 4.09963 14.606C4.12626 14.7263 4.18042 14.8388 4.25786 14.9346L6.32136 17.4667C6.31559 17.7181 6.31778 17.9697 6.32795 18.221L4.30759 20.7848C4.23062 20.8829 4.17774 20.9976 4.1532 21.1199C4.12866 21.2421 4.13315 21.3684 4.1663 21.4886C4.49585 22.684 4.98287 23.8303 5.61454 24.8973C5.67736 25.0059 5.76489 25.098 5.87003 25.1663C5.97518 25.2347 6.09496 25.2772 6.21964 25.2905L9.46992 25.6221C9.64328 25.8039 9.8219 25.9794 10.0058 26.1487L10.4033 29.3899C10.4188 29.5144 10.4634 29.6334 10.5336 29.7373C10.6037 29.8413 10.6974 29.9272 10.807 29.9881C11.8856 30.5998 13.0406 31.0658 14.2418 31.3739C14.3625 31.405 14.4889 31.4073 14.6107 31.3806C14.7325 31.3539 14.8463 31.2991 14.943 31.2204L17.4619 29.1637C17.713 29.1694 17.9653 29.1672 18.2163 29.1571L20.7853 31.1774C20.9277 31.289 21.1039 31.3488 21.2849 31.347C21.3539 31.3462 21.4225 31.3366 21.4892 31.3187C22.6846 30.9891 23.8308 30.5021 24.8979 29.8704C25.0064 29.8076 25.0986 29.7201 25.1669 29.6149C25.2352 29.5098 25.2778 29.39 25.2911 29.2653L25.6226 26.0151C25.8044 25.8426 25.98 25.664 26.1492 25.4792L29.3945 25.0896C29.519 25.0741 29.638 25.0295 29.7419 24.9593C29.8459 24.8892 29.9318 24.7955 29.9927 24.6859C30.6046 23.6074 31.0706 22.4523 31.3786 21.2511C31.4096 21.1304 31.4119 21.004 31.3852 20.8822C31.3586 20.7604 31.3037 20.6466 31.225 20.5499L29.1641 18.0164ZM28.8007 23.5488L25.6642 23.9255C25.4682 23.9498 25.2882 24.046 25.1592 24.1955C24.8993 24.4935 24.6219 24.7758 24.3285 25.0408C24.1813 25.1725 24.0882 25.3541 24.0673 25.5505L23.7454 28.6918C23.0137 29.0902 22.2442 29.4146 21.4481 29.6601L18.9647 27.7081C18.8222 27.5965 18.6461 27.5367 18.4651 27.5385L18.4173 27.5389C18.0229 27.5649 17.6274 27.5684 17.2327 27.5493C17.0355 27.5389 16.8415 27.6022 16.6883 27.7267L14.2407 29.723C13.4411 29.4901 12.6669 29.1778 11.9295 28.7909L11.5528 25.657C11.5285 25.4611 11.4322 25.2811 11.2828 25.152C10.9848 24.8921 10.7025 24.6147 10.4374 24.3213C10.3058 24.1741 10.1242 24.081 9.92779 24.0601L6.7865 23.7382C6.38852 23.0087 6.06415 22.2414 5.81819 21.4476L7.77019 18.9642C7.89202 18.8088 7.95185 18.6138 7.93808 18.4168C7.91206 18.0225 7.9086 17.6269 7.92774 17.2322C7.93807 17.035 7.87485 16.8411 7.75033 16.6878L5.7553 14.2402C5.98825 13.4406 6.30052 12.6664 6.68743 11.929L9.82129 11.5523C10.0173 11.528 10.1972 11.4318 10.3263 11.2823C10.5862 10.9843 10.8636 10.702 11.157 10.4369C11.3042 10.3053 11.3973 10.1237 11.4182 9.9273L11.7401 6.78601C12.4696 6.38803 13.2369 6.06367 14.0307 5.81771L16.5142 7.7697C16.6695 7.89153 16.8646 7.95136 17.0615 7.93759C17.4559 7.91157 17.8514 7.90812 18.2462 7.92725C18.4433 7.93758 18.6373 7.87436 18.7905 7.74984L21.2382 5.75481C22.0377 5.98777 22.8119 6.30003 23.5494 6.68694L23.926 9.82346C23.9504 10.0194 24.0466 10.1994 24.1961 10.3285C24.4941 10.5884 24.7763 10.8658 25.0414 11.1592C25.1731 11.3064 25.3547 11.3995 25.5511 11.4204L28.6923 11.7423C29.0902 12.4709 29.4145 13.2373 29.6606 14.0302L27.7086 16.5137C27.5868 16.669 27.527 16.8641 27.5407 17.061C27.5668 17.4554 27.5702 17.8509 27.5511 18.2457C27.5407 18.4428 27.604 18.6368 27.7285 18.79L29.7235 21.2377C29.4914 22.0371 29.18 22.8113 28.7941 23.5488L28.8007 23.5488Z" fill="white"/>
</svg>
