<svg width="34" height="35" viewBox="0 0 34 35" fill="none" xmlns="http://www.w3.org/2000/svg">
<g id="fluent:chat-24-regular">
<path id="Vector" d="M16.9997 3.48718C24.8239 3.48718 31.1664 9.8296 31.1664 17.6538C31.1664 25.4781 24.8239 31.8205 16.9997 31.8205C14.7387 31.8236 12.51 31.2834 10.5014 30.2452L5.08127 31.7568C4.77887 31.8412 4.45947 31.8436 4.1558 31.764C3.85212 31.6843 3.57509 31.5253 3.35309 31.3033C3.13109 31.0813 2.9721 30.8042 2.89242 30.5006C2.81273 30.1969 2.81521 29.8775 2.8996 29.5751L4.4126 24.1592C3.37185 22.1488 2.83008 19.9176 2.83302 17.6538C2.83302 9.8296 9.17544 3.48718 16.9997 3.48718ZM16.9997 5.61218C13.806 5.61218 10.7432 6.88085 8.48494 9.13911C6.22669 11.3974 4.95802 14.4602 4.95802 17.6538C4.95802 19.7363 5.48644 21.7381 6.4781 23.5146L6.6906 23.8971L5.11527 29.5411L10.7635 27.9658L11.146 28.1783C12.7531 29.0717 14.5434 29.5853 16.3797 29.6797C18.216 29.774 20.0495 29.4465 21.7396 28.7224C23.4298 27.9983 24.9316 26.8967 26.13 25.5022C27.3284 24.1077 28.1916 22.4572 28.6533 20.6774C29.115 18.8976 29.1629 17.0357 28.7935 15.2344C28.4241 13.4332 27.647 11.7405 26.522 10.2861C25.397 8.83176 23.9538 7.65434 22.3032 6.84415C20.6526 6.03396 18.8384 5.61254 16.9997 5.61218ZM12.3955 19.0705H18.7677C19.0369 19.0706 19.296 19.1729 19.4927 19.3566C19.6894 19.5404 19.809 19.792 19.8274 20.0606C19.8457 20.3292 19.7615 20.5947 19.5916 20.8035C19.4217 21.0123 19.1789 21.1489 18.9122 21.1856L18.7677 21.1955H12.3955C12.1263 21.1954 11.8672 21.0932 11.6705 20.9094C11.4738 20.7256 11.3542 20.474 11.3358 20.2054C11.3175 19.9369 11.4017 19.6713 11.5716 19.4625C11.7415 19.2537 11.9843 19.1171 12.251 19.0804L12.3955 19.0705ZM12.3955 14.1122H21.6109C21.88 14.1126 22.1389 14.2151 22.3353 14.399C22.5318 14.5829 22.6511 14.8345 22.6693 15.103C22.6874 15.3714 22.6031 15.6368 22.4332 15.8455C22.2633 16.0541 22.0206 16.1906 21.754 16.2273L21.6109 16.2372H12.3955C12.1263 16.2371 11.8672 16.1348 11.6705 15.9511C11.4738 15.7673 11.3542 15.5157 11.3358 15.2471C11.3175 14.9785 11.4017 14.713 11.5716 14.5042C11.7415 14.2953 11.9843 14.1588 12.251 14.1221L12.3955 14.1122Z" fill="white"/>
</g>
</svg>
