<svg width="34" height="35" viewBox="0 0 34 35" fill="none" xmlns="http://www.w3.org/2000/svg">
<g id="ico/mail">
<path id="Union" fill-rule="evenodd" clip-rule="evenodd" d="M5.62152 7.18463C4.82435 7.18463 4.05853 7.49905 3.49287 8.06077C2.927 8.62271 2.60791 9.38625 2.60791 10.1838V24.6624C2.60791 25.4599 2.927 26.2235 3.49287 26.7854C4.05852 27.3471 4.82435 27.6616 5.62152 27.6616H28.5328C29.3299 27.6616 30.0958 27.3471 30.6614 26.7854C31.2273 26.2235 31.5464 25.4599 31.5464 24.6624V10.1838C31.5464 9.38625 31.2273 8.62271 30.6614 8.06077C30.0958 7.49905 29.3299 7.18463 28.5328 7.18463H5.62152ZM4.80458 9.38166C5.02015 9.16759 5.31389 9.04617 5.62152 9.04617H28.5328C28.8404 9.04617 29.1341 9.16759 29.3497 9.38166C29.458 9.48925 29.5422 9.61578 29.5991 9.75311L17.7352 17.9094C17.5425 18.0418 17.3128 18.1132 17.0771 18.1132C16.8415 18.1132 16.612 18.0419 16.4193 17.9095L4.5552 9.75311C4.61208 9.61578 4.69624 9.48925 4.80458 9.38166ZM18.7896 19.4435L29.6848 11.9532V24.6624C29.6848 24.962 29.565 25.2507 29.3497 25.4645C29.1341 25.6786 28.8404 25.8 28.5328 25.8H5.62152C5.31389 25.8 5.02015 25.6786 4.80458 25.4645C4.58924 25.2507 4.46945 24.962 4.46945 24.6624V11.9532L15.3647 19.4435C15.8684 19.7897 16.4659 19.9748 17.0771 19.9748C17.6884 19.9748 18.2858 19.7897 18.7896 19.4435Z" fill="white"/>
</g>
</svg>
