<svg width="35" height="34" viewBox="0 0 35 34" fill="none" xmlns="http://www.w3.org/2000/svg">
<g id="ico/profile">
<g id="Group">
<g id="Union">
<path fill-rule="evenodd" clip-rule="evenodd" d="M17.5 5.06921C14.182 5.06921 11.4923 7.75895 11.4923 11.0769C11.4923 14.3949 14.182 17.0846 17.5 17.0846C20.8179 17.0846 23.5077 14.3949 23.5077 11.0769C23.5077 7.75895 20.8179 5.06921 17.5 5.06921ZM13.3538 11.0769C13.3538 8.78705 15.2101 6.93075 17.5 6.93075C19.7898 6.93075 21.6461 8.78705 21.6461 11.0769C21.6461 13.3668 19.7898 15.2231 17.5 15.2231C15.2101 15.2231 13.3538 13.3668 13.3538 11.0769Z" fill="white"/>
<path fill-rule="evenodd" clip-rule="evenodd" d="M11.8589 18.8897C10.116 18.8897 8.44439 19.5821 7.21194 20.8145C5.97949 22.047 5.28711 23.7186 5.28711 25.4615C5.28711 26.4564 5.68233 27.4106 6.38583 28.1141C7.08934 28.8176 8.04349 29.2128 9.03839 29.2128H25.9615C26.9564 29.2128 27.9105 28.8176 28.614 28.1141C29.3175 27.4106 29.7127 26.4564 29.7127 25.4615C29.7127 23.7186 29.0204 22.047 27.7879 20.8145C26.5555 19.5821 24.8839 18.8897 23.141 18.8897H11.8589ZM8.52825 22.1308C9.41159 21.2475 10.6097 20.7512 11.8589 20.7512H23.141C24.3902 20.7512 25.5883 21.2475 26.4716 22.1308C27.355 23.0142 27.8512 24.2123 27.8512 25.4615C27.8512 25.9627 27.6521 26.4434 27.2977 26.7978C26.9433 27.1521 26.4627 27.3512 25.9615 27.3512H9.03839C8.5372 27.3512 8.05654 27.1521 7.70214 26.7978C7.34774 26.4434 7.14865 25.9627 7.14865 25.4615C7.14865 24.2123 7.64491 23.0142 8.52825 22.1308Z" fill="white"/>
</g>
</g>
</g>
</svg>
