<svg width="20" height="21" viewBox="0 0 20 21" fill="none" xmlns="http://www.w3.org/2000/svg">
<g id="tabler:mail-filled" clip-path="url(#clip0_98_50)">
<g id="Group">
<path id="Vector" d="M18.3332 6.33472V14.2222C18.3332 14.8599 18.0896 15.4735 17.6521 15.9374C17.2146 16.4014 16.6164 16.6806 15.9798 16.7181L15.8332 16.7222H4.1665C3.52883 16.7223 2.91524 16.4786 2.45129 16.0411C1.98733 15.6037 1.70808 15.0055 1.67067 14.3689L1.6665 14.2222V6.33472L9.53734 11.5822L9.634 11.6372C9.74792 11.6929 9.87304 11.7218 9.99984 11.7218C10.1266 11.7218 10.2517 11.6929 10.3657 11.6372L10.4623 11.5822L18.3332 6.33472Z" fill="white"/>
<path id="Vector_2" d="M15.8334 3.38892C16.7334 3.38892 17.5226 3.86392 17.9626 4.57808L10.0001 9.88642L2.0376 4.57808C2.24654 4.23872 2.53361 3.95425 2.87485 3.7484C3.2161 3.54255 3.60162 3.4213 3.99926 3.39475L4.16676 3.38892H15.8334Z" fill="white"/>
</g>
</g>
<defs>
<clipPath id="clip0_98_50">
<rect width="20" height="20" fill="white" transform="translate(0 0.0556641)"/>
</clipPath>
</defs>
</svg>
