<svg width="20" height="21" viewBox="0 0 20 21" fill="none" xmlns="http://www.w3.org/2000/svg">
<g id="bxs:phone">
<path id="Vector" d="M17.0727 14.3391L13.6852 11.2591C13.5251 11.1136 13.3147 11.036 13.0984 11.0426C12.8821 11.0493 12.6769 11.1398 12.5261 11.2949L10.5319 13.3458C10.0519 13.2541 9.0869 12.9533 8.09357 11.9624C7.10023 10.9683 6.7994 10.0008 6.71024 9.52412L8.7594 7.52912C8.91474 7.37839 9.00535 7.17313 9.01204 6.95679C9.01872 6.74044 8.94097 6.52998 8.79524 6.36995L5.71607 2.98328C5.57027 2.82275 5.36763 2.72537 5.1512 2.71183C4.93476 2.69829 4.72157 2.76966 4.5569 2.91078L2.74857 4.46162C2.60449 4.60621 2.5185 4.79866 2.5069 5.00245C2.4944 5.21078 2.25607 10.1458 6.08274 13.9741C9.42107 17.3116 13.6027 17.5558 14.7544 17.5558C14.9227 17.5558 15.0261 17.5508 15.0536 17.5491C15.2573 17.5377 15.4497 17.4513 15.5936 17.3066L17.1436 15.4974C17.2852 15.3333 17.3571 15.1203 17.3439 14.9039C17.3307 14.6874 17.2334 14.4848 17.0727 14.3391Z" fill="white"/>
</g>
</svg>
